<svg xmlns:xlink="http://www.w3.org/1999/xlink" xmlns="http://www.w3.org/2000/svg" class="icon-1WVg4I" aria-hidden="true" role="img" width="20" height="20" viewBox="0 0 24 24">
	<g fill="none" fill-rule="evenodd">
		<path d="M24 0v24H0V0z" fill="none">
		</path>
		<path fill="#B9BBBE" d="M12 16c1.1045695 0 2 .8954305 2 2s-.8954305 2-2 2-2-.8954305-2-2 .8954305-2 2-2zm0-6c1.1045695 0 2 .8954305 2 2s-.8954305 2-2 2-2-.8954305-2-2 .8954305-2 2-2zm0-6c1.1045695 0 2 .8954305 2 2s-.8954305 2-2 2-2-.8954305-2-2 .8954305-2 2-2z">
		</path>
	</g>
</svg>
